<svg width="985" height="1414" xmlns="http://www.w3.org/2000/svg" xmlns:xlink="http://www.w3.org/1999/xlink" xml:space="preserve" overflow="hidden"><defs><clipPath id="clip0"><rect x="1784" y="239" width="985" height="1414"/></clipPath></defs><g clip-path="url(#clip0)" transform="translate(-1784 -239)"><path d="M2.63451 256.923C-14.117 246.544 26.5656 171.496 105.14 67.3061 133.059 30.5802 147.816 19.0039 182.118 7.82631 233.171-8.54052 254.31-4.54869 287.414 28.9836L310.149 52.1367 341.658 42.9552C390.717 28.5845 435.787 23.794 469.69 28.9836 519.945 36.9673 555.443 57.7255 552.252 77.6853 549.859 94.0522 539.488 96.0483 521.54 83.6733 498.008 67.3061 478.863 61.7173 444.163 61.3181 415.844 61.3181 365.589 68.903 344.849 76.8867 337.67 79.6811 338.467 81.6772 357.612 102.435 368.78 114.81 377.156 126.786 375.56 128.782 374.364 131.177 361.202 132.375 346.444 132.375 309.351 131.576 279.836 142.355 184.112 191.056 84.0002 242.552 18.1897 266.504 2.63451 256.923Z" stroke="#DE6C00" stroke-width="20.625" stroke-miterlimit="8" fill="#F9DE93" fill-rule="evenodd" transform="matrix(-0.739344 0.673327 0.673327 0.739344 2551.43 1208.03)"/><path d="M54.3522 454.287C-11.8571 390.815-14.2502 380.437 24.4382 316.965 38.3979 294.211 64.7221 252.296 82.6707 224.352 122.556 162.876 166.03 78.2469 178.794 37.5292 188.765 5.19468 193.551-2.78934 200.731-1.19239 203.124-0.394094 226.257 21.9607 251.783 49.1059 296.853 96.2107 298.449 98.6059 298.449 115.372 298.449 125.751 293.264 145.711 286.085 164.074 264.547 217.965 251.783 238.723 175.204 345.308 156.059 371.654 132.128 411.174 119.365 437.921 107.001 463.868 94.6361 485.025 91.8442 485.025 89.052 485.025 72.3005 471.053 54.3522 454.287Z" stroke="#0063B2" stroke-width="20.625" stroke-miterlimit="8" fill="#83BEEC" fill-rule="evenodd" transform="matrix(-0.739344 0.673327 0.673327 0.739344 2481.88 941.427)"/><path d="M-0.170341 263.679C-5.75407 248.909 26.5527 194.219 96.3518 101.207 136.636 47.7154 157.376 25.7598 167.746 25.7598 170.937 25.7598 184.498 20.5701 198.458 14.1831 247.516-8.57119 268.656-6.17595 263.471 21.3684 260.678 36.5378 255.095 48.9128 215.608 131.546 181.307 203.002 174.526 209.389 99.1436 240.925 34.131 268.07 4.21703 274.856-0.170341 263.679Z" stroke="#DE6C00" stroke-width="20.625" stroke-miterlimit="8" fill="#F9DE93" fill-rule="evenodd" transform="matrix(-0.739344 0.673327 0.673327 0.739344 2544.46 857.872)"/><path d="M43.0299 438.022C-19.1908 376.945-20.3875 384.131 74.5391 240.421 137.558 144.615 163.483 97.1104 184.223 38.0298 191.801 17.2719 199.778-0.292684 202.57-1.09098 209.351-3.48622 291.913 82.3405 298.295 98.3082 305.075 114.675 299.092 147.409 282.341 185.731 269.578 214.873 263.196 224.853 194.195 319.461 147.928 382.933 128.384 414.469 110.835 452.393 103.656 467.961 95.2796 481.135 92.0885 481.135 89.2967 481.135 66.9611 461.574 43.0299 438.022Z" stroke="#0063B2" stroke-width="20.625" stroke-miterlimit="8" fill="#83BEEC" fill-rule="evenodd" transform="matrix(-0.739344 0.673327 0.673327 0.739344 2488.8 605.963)"/><path d="M1184.69 963.124C1173.12 951.148 1157.17 928.793 1149.19 913.224 1141.61 897.656 1134.03 884.882 1132.44 884.882 1131.24 884.882 1117.68 895.66 1102.92 908.833 1072.21 936.378 1062.24 938.374 1052.27 920.41 1008.4 839.773 954.552 759.136 889.14 674.507 818.144 582.693 684.13 425.011 609.545 345.971L577.637 312.039 555.302 333.995C537.353 351.16 532.168 354.753 528.18 350.761 525.388 347.967 505.046 283.297 483.109 207.051L443.224 68.5309 415.305 53.7611C369.437 29.8094 330.748 25.418 300.834 40.9865 273.712 54.9585 268.129 100.068 286.874 157.95 309.609 227.41 308.811 270.124 284.881 323.217L272.516 350.362 282.487 361.14C300.834 381.099 305.621 391.479 305.621 410.241 305.621 452.156 279.296 510.438 233.428 571.515 172.404 652.551 129.727 722.809 111.779 771.511 105.796 787.878 99.8135 801.051 98.2179 801.051 93.4318 801.051 13.6616 720.015 5.68442 707.241-9.0732 682.89-2.29239 665.724 60.3271 567.922 117.363 478.503 150.866 416.628 172.404 359.543 198.329 292.479 203.116 288.487 229.44 312.039 247.787 328.406 248.984 327.608 261.747 290.083 273.314 256.551 270.92 220.624 254.169 162.741 237.816 108.051 237.417 76.515 252.972 46.5753 259.753 33.402 270.123 20.6279 280.892 13.4425 295.649 2.66411 302.031 1.06752 331.147-0.529429 369.437-2.52552 396.957 4.6602 441.23 29.0111 465.959 42.5835 472.34 43.7809 602.765 63.3417 728.403 82.1037 748.345 86.0956 748.345 94.4787 748.345 96.4745 739.97 107.652 729.998 120.027L712.05 142.382 771.08 205.455C949.366 395.071 1014.78 470.918 1078.59 560.737 1136.43 641.773 1222.98 785.083 1222.98 799.455 1222.98 801.051 1209.02 815.821 1192.27 831.39L1161.16 860.531 1176.31 890.87C1184.69 907.636 1199.45 929.991 1209.42 940.769 1229.76 962.325 1231.35 975.499 1215.4 981.487 1207.02 984.281 1203.04 982.285 1184.69 963.124Z" stroke="#0063B2" stroke-width="20.625" stroke-miterlimit="8" fill="#83BEEC" fill-rule="evenodd" transform="matrix(-0.739344 0.673327 0.673327 0.739344 2285.18 51.3364)"/><path d="M0.618209 273.285C7.39865 238.955 52.4687 158.717 105.516 87.6604 154.575 21.3944 175.714 6.62418 230.357-0.162041 259.074-3.75472 261.467 2.63235 248.704 44.5475 235.143 88.0595 195.258 167.1 175.315 190.253 149.788 219.794 32.5261 286.06 5.80315 286.06-0.977297 286.06-1.77487 284.064 0.618209 273.285Z" stroke="#DE6C00" stroke-width="20.625" stroke-miterlimit="8" fill="#F9DE93" fill-rule="evenodd" transform="matrix(-0.739344 0.673327 0.673327 0.739344 2537.11 529.02)"/></g></svg>